<svg width="50" height="52" viewBox="0 0 50 52" fill="none" xmlns="http://www.w3.org/2000/svg">
<path d="M49.1958 0.978289C49.0463 0.605892 48.759 0.30548 48.3936 0.139547C48.0282 -0.0263861 47.6129 -0.0450631 47.2341 0.0874013C46.8553 0.219866 46.5422 0.493272 46.3598 0.850743C46.1775 1.20821 46.1399 1.62223 46.2551 2.00665C48.6494 8.88818 43.8968 14.0274 40.273 16.78L38.8091 14.6821C38.3168 13.9784 37.2163 13.3934 36.3606 13.3831L28.144 13.4192C27.1403 13.4495 26.1634 13.7505 25.3167 14.2903L1.10505 31.2673C0.541887 31.6636 0.158698 32.2669 0.0393825 32.9451C-0.0799328 33.6233 0.0743481 34.3212 0.468446 34.8859L11.4712 50.6284C12.2959 51.8011 13.6129 51.6593 14.7882 50.8397L38.9998 33.8601C39.6957 33.3678 40.4999 32.306 40.7834 31.4941L43.3556 23.3883C43.6391 22.5791 43.4664 21.3445 42.9741 20.6409L42.0823 19.3625C46.9484 15.6331 52 9.04282 49.1958 0.978289V0.978289ZM37.9302 25.0971C37.4842 25.4094 36.981 25.6306 36.4494 25.7483C35.9178 25.866 35.3683 25.8778 34.8321 25.783C34.296 25.6882 33.7838 25.4887 33.3248 25.1959C32.8657 24.9031 32.4689 24.5227 32.157 24.0765C31.5253 23.1735 31.2778 22.0569 31.4686 20.9716C31.6595 19.8863 32.2732 18.921 33.175 18.2878C33.882 17.7924 34.7261 17.5304 35.5893 17.5383C36.4525 17.5461 37.2917 17.8235 37.9895 18.3316C37.2885 18.7543 36.8065 19.0017 36.7163 19.0404C36.3968 19.1927 36.1385 19.449 35.9838 19.7674C35.8291 20.0857 35.787 20.4471 35.8646 20.7925C35.9422 21.1378 36.1348 21.4466 36.4108 21.6682C36.6868 21.8897 37.0299 22.011 37.3838 22.012C37.6055 22.012 37.8323 21.9605 38.0462 21.86C38.5462 21.6229 39.0823 21.3419 39.6416 21.0095C39.7702 21.7828 39.6779 22.5768 39.3751 23.3C39.0723 24.0231 38.5715 24.6461 37.9302 25.0971V25.0971Z" fill="url(#paint0_linear_587_50)"/>
<defs>
<linearGradient id="paint0_linear_587_50" x1="25" y1="0" x2="25" y2="51.4814" gradientUnits="userSpaceOnUse">
<stop stop-color="#252525"/>
<stop offset="1" stop-color="#161D56" stop-opacity="0.91"/>
</linearGradient>
</defs>
</svg>
